<?xml version="1.0" encoding="UTF-8"?>
<svg data-bbox="0 0 512 512" xmlns="http://www.w3.org/2000/svg" viewBox="0 0 512 512" height="512" width="512" data-type="color">
    <g>
        <g clip-path="url(#ecdd26a2-8b6b-4eef-bf95-6f6712f6fc8c)">
            <path fill="#6DA544" d="M256 512c141.385 0 256-114.615 256-256S397.385 0 256 0 0 114.615 0 256s114.615 256 256 256" data-color="1"/>
            <path fill="#FFDA44" d="M256 100.174 467.478 256 256 411.826 44.523 256z" data-color="2"/>
            <path fill="#F0F0F0" d="M256 345.043c49.177 0 89.043-39.866 89.043-89.043S305.177 166.957 256 166.957 166.957 206.823 166.957 256s39.866 89.043 89.043 89.043" data-color="3"/>
            <path fill="#0052B4" d="M211.478 250.435c-15.484 0-30.427 2.355-44.493 6.725.623 48.64 40.227 87.884 89.015 87.884 30.168 0 56.812-15.017 72.919-37.968-27.557-34.497-69.958-56.641-117.441-56.641" data-color="4"/>
            <path fill="#0052B4" d="M343.394 273.06a89.5 89.5 0 0 0 1.651-17.06c0-49.178-39.866-89.043-89.043-89.043-36.694 0-68.194 22.201-81.826 53.899a183.7 183.7 0 0 1 37.305-3.812c51.717-.001 98.503 21.497 131.913 56.016" data-color="4"/>
        </g>
        <defs fill="none">
            <clipPath id="ecdd26a2-8b6b-4eef-bf95-6f6712f6fc8c">
                <path fill="#ffffff" d="M512 0v512H0V0z"/>
            </clipPath>
        </defs>
    </g>
</svg>
