<?xml version="1.0" encoding="UTF-8"?>
<svg data-bbox="94.163 102.843 112.086 97.612" xmlns="http://www.w3.org/2000/svg" viewBox="0 0 300 300" height="300" width="300" data-type="color">
    <g>
        <mask height="99" width="114" y="102" x="93" maskUnits="userSpaceOnUse" style="mask-type:luminance" id="83a044e2-451e-48db-81ec-e950f8015a1f" fill="none">
            <path fill="#ffffff" d="M206.538 102.375H93.625v98.437h112.913z"/>
        </mask>
        <g mask="url(#83a044e2-451e-48db-81ec-e950f8015a1f)">
            <path fill="#3F3F3F" d="M174.698 109.777c9.647 0 17.473 40.572 17.473 90.678h14.078c0-53.945-14.202-97.612-31.593-97.612-9.937 0-18.715 13.084-24.512 33.638-5.797-20.554-14.575-33.638-24.429-33.638-17.391 0-31.552 43.626-31.552 97.57h14.078c0-50.106 7.743-90.636 17.391-90.636s17.473 37.476 17.473 83.703H157.1c0-46.227 7.867-83.703 17.515-83.703" data-color="1"/>
        </g>
    </g>
</svg>
