<?xml version="1.0" encoding="UTF-8"?>
<svg data-bbox="3.339 104.117 293.508 66.741" xmlns="http://www.w3.org/2000/svg" viewBox="0 0 300 300" height="300" width="300" data-type="color">
    <g>
        <g clip-path="url(#64358775-2ecf-4623-9fcd-f128faf56d9c)">
            <mask height="81" width="294" y="97" x="3" maskUnits="userSpaceOnUse" style="mask-type:luminance" id="0c1f2e6e-8442-48c8-bc6f-991268ef4de1" fill="none">
                <path fill="#ffffff" d="M296.846 97.35H3.154v80.275h293.692z"/>
            </mask>
            <g mask="url(#0c1f2e6e-8442-48c8-bc6f-991268ef4de1)">
                <path fill="#3F3F3F" d="M78.672 147.528h6.793c2.65 0 3.659.9 3.659 3.106 0 2.124-1.009 3.023-3.659 3.023h-6.793zM68.15 169.836h10.524v-9.071h11.272c7.464 0 10.151-4.329 10.151-9.926 0-6.496-2.764-10.173-10.227-10.173H68.15zm35.417-29.17h28.324v7.107h-17.8v3.923h16.533v7.11H114.09v3.921h17.8v7.109h-28.324zm43.253 6.862h6.793c2.649 0 3.658.9 3.658 3.106 0 2.124-1.009 3.023-3.658 3.023h-6.793zm-10.524 22.308h10.524v-9.071h11.27c7.466 0 10.153-4.329 10.153-9.926 0-6.496-2.763-10.173-10.228-10.173h-21.719zm42.134-12.379c-5.15-.86-7.275-4.128-7.275-8.212 0-7.559 6.755-9.6 15.411-9.6 11.867 0 16.755 3.39 17.13 9.559h-12.242c0-1.185-.634-1.921-1.603-2.33-.934-.448-2.127-.611-3.285-.611-3.135 0-4.216.857-4.216 2.084 0 .815.334 1.348 1.379 1.511l12.577 2.042c5.3.858 8.584 3.554 8.584 8.496 0 7.111-5.3 10.461-17.13 10.461-8.098 0-16.943-1.225-16.98-9.805h12.688c.036.979.374 1.633 1.121 2.083.782.409 1.939.614 3.581.614 3.283 0 4.18-.982 4.18-2.371 0-.858-.486-1.715-1.901-1.959zm29.892-16.791h10.524v29.17h-10.524zm49.526 17.812c-.673 3.841-1.869 6.946-4.48 9.069-2.575 2.125-6.606 3.31-13.025 3.31-6.38 0-18.211-.491-18.211-15.605 0-15.117 11.831-15.608 18.211-15.608 6.345 0 16.124.898 17.505 12.462H245.98c-.3-2.086-1.571-5.109-5.638-5.109-4.292 0-7.016 2.329-7.016 8.254s2.649 8.251 6.493 8.251c3.324 0 5.301-1.511 6.159-5.024zm13.769-3.226c0-5.926 2.727-8.254 7.019-8.254s7.017 2.329 7.017 8.254-2.726 8.251-7.017 8.251-7.019-2.327-7.019-8.251m-11.196 0c0 15.114 11.831 15.606 18.213 15.606s18.213-.492 18.213-15.606c0-15.117-11.83-15.607-18.213-15.607-6.382 0-18.213.49-18.213 15.607M52.247 140.955c.68-13.994-11.578-29.754-28.288-31.702l.029-.192c16.473 0 29.102 15.017 29.102 26.863-.016 2.466-.214 3.994-.566 5.103zm-.998 1.779c-1.096 1.319-2.475 2.647-4.09 3.907-2.97-16.825-15.527-31.536-24.405-35.831l-.19.131c8.928 7.214 19.577 21.226 23.717 36.36a34.8 34.8 0 0 1-6.8 3.835c-8.425-9.46-16.28-27.703-18.81-39.28l-.258.076c.057 11.238 8.16 30.315 18.042 39.623a34.5 34.5 0 0 1-7.028 1.912c-9.472-3.695-16.215-15.529-16.215-27.651 0-7.914 2.45-12.809 2.925-13.811l-.202-.079c-.574.855-4.163 5.747-4.163 14.291 0 13.702 6.863 24.176 15.975 27.474a31.8 31.8 0 0 1-9.764-.451l-.068.209c.975.353 4.282 1.72 9.327 1.72 11.41 0 19.124-6.981 22.229-12.287z" clip-rule="evenodd" fill-rule="evenodd" data-color="1"/>
                <path fill="#3F3F3F" d="M28.1 104.117c-8.649 0-18.792 6.146-18.792 11.765 0 2.173 2.02 4.01 6.199 4.01 9.702 0 18.715-6.563 18.715-11.666 0-2.686-2.62-4.109-6.121-4.109m3.454 3.95c0 4.302-8.39 9.56-15.402 9.56-3.099 0-4.773-1.201-4.773-3.182 0-4.363 8.485-9.532 15.063-9.532 4.289 0 5.112 2.149 5.112 3.154" clip-rule="evenodd" fill-rule="evenodd" data-color="1"/>
                <path fill="#3F3F3F" d="M5.862 118.484c-.243.414-1.217 2.291-1.217 4.215 0 3.567 3.661 6.879 10.394 6.879 12.953 0 27.919-9.388 27.919-18.102 0-3.912-3.761-6.039-6.372-6.479l-.05.153c.813.253 3.788 1.615 3.788 5.099 0 6.944-13.213 16.404-26.374 16.404-5.04 0-8.214-2.449-8.214-6.016 0-1.128.239-1.872.302-2.087z" clip-rule="evenodd" fill-rule="evenodd" data-color="1"/>
                <path fill="#3F3F3F" d="M48.298 112.127c.355.266 2.489 2.017 2.489 5.327 0 11.289-17.964 22.389-33.845 22.389-9.47 0-13.788-4.604-13.597-8.692h.17c.37 2.123 3.446 5.922 11.735 5.922 15.901 0 33.655-11.486 33.655-21.549 0-1.726-.476-2.802-.745-3.28z" clip-rule="evenodd" fill-rule="evenodd" data-color="1"/>
            </g>
        </g>
        <defs fill="none">
            <clipPath id="64358775-2ecf-4623-9fcd-f128faf56d9c">
                <path fill="#ffffff" d="M300 0v300H0V0z"/>
            </clipPath>
        </defs>
    </g>
</svg>
