<?xml version="1.0" encoding="UTF-8"?>
<svg data-bbox="102.016 98.501 93.438 105.318" xmlns="http://www.w3.org/2000/svg" viewBox="0 0 300 300" height="300" width="300" data-type="color">
    <g>
        <g clip-path="url(#80414c75-78cf-40c0-bacd-d034c7a6d176)">
            <mask height="115" width="115" y="92" x="92" maskUnits="userSpaceOnUse" style="mask-type:luminance" id="ecea4f09-006b-4d25-8b7b-8e77ea81ea25" fill="none">
                <path fill="#ffffff" d="M207 92H92v115h115z"/>
            </mask>
            <g mask="url(#ecea4f09-006b-4d25-8b7b-8e77ea81ea25)">
                <path fill="#3F3F3F" d="M162.904 203.819v-4.604l20.214-.009c2.04 0 3.701-2.194 3.701-4.898l8.635-90.905c0-2.706-2.04-4.902-4.54-4.902h-84.342c-2.516 0-4.556 2.196-4.556 4.902l8.734 90.905c0 2.704 1.661 4.898 3.7 4.898h20.872v4.613zm1.744-49.81c.494-6.265 8.832-16.496 16.908-19.182v-24.169c-22.22 10.231-36.661 25.704-39.786 43.289zm-47.27-42.198h56.464c-5.559 2.144-22.483 13.937-26.71 21.866h-29.704zm45 62.655c-.805 7.919-.838 17.563-.838 27.692h-24.474c0-10.129.411-19.773 1.217-27.692zm-37.861-8.373v-3.069h-3.915v-3.067h3.915v-3.646h-8.948v16.37h8.948v-3.518h-3.915v-3.07zm20.805-3.069v3.069h-3.898v3.07h3.898v3.518h-8.93v-16.37h8.93v3.646h-3.898v3.067zm22.928 3.069v-3.069h-3.914v-3.067h3.914v-3.646h-8.947v16.37h8.947v-3.518h-3.914v-3.07zm-37.023-9.782v12.852h3.914v3.518h-8.947v-16.37zm19.408 0 1.908 11.064 1.957-11.064h3.734l-3.027 16.37h-6.464l-2.499-16.37zm19.737 0h4.835v4.824l.033-3.865c3.52-2.59 7.549-1.407 7.549 1.535v13.875h-4.852v-11.798c0-1.023-2.465-1.504-2.73.286v11.511h-4.835z" clip-rule="evenodd" fill-rule="evenodd" data-color="1"/>
            </g>
        </g>
        <defs fill="none">
            <clipPath id="80414c75-78cf-40c0-bacd-d034c7a6d176">
                <path fill="#ffffff" d="M207 92v115H92V92z"/>
            </clipPath>
        </defs>
    </g>
</svg>
