<?xml version="1.0" encoding="UTF-8"?>
<svg data-bbox="8.522 135 282.075 37.5" xmlns="http://www.w3.org/2000/svg" viewBox="0 0 300 300" height="300" width="300" data-type="color">
    <g>
        <mask height="38" width="283" y="135" x="8" maskUnits="userSpaceOnUse" style="mask-type:luminance" id="9750cbe3-374e-405e-9703-f2b2e1585b54" fill="none">
            <path fill="#ffffff" d="M290.597 135H8.522v37.5h282.075z"/>
        </mask>
        <g mask="url(#9750cbe3-374e-405e-9703-f2b2e1585b54)">
            <path fill="#3F3F3F" d="M147.698 150.075h-17.714v-13.946h-5.36v35.416h5.36v-16.782h17.714v16.782h5.303v-35.416h-5.303m-52.268-.116c-1.947-.058-5.896-.058-9.394-.058v35.561h5.416v-13.484c1.354 0 4.147-.115 6.403-.173 3.16-.058 11.396-1.678 11.34-11.43.084-10.995-11.791-10.416-13.765-10.416m-.283 17.303h-3.582v-12.818h3.046c1.41 0 9.732-.637 9.986 5.989.338 6.511-6.234 6.829-9.45 6.829m-49.701-17.361.056 35.561H67.25v-4.629H50.918v-12.066h11.565c0-1.013-.056-2.489 0-4.427H50.918V140.7H67.25c-.056-2.806 0-4.745 0-4.745zm-31.621 8.68c0-5.816 7.503-6.047 11.932-2.314a1060 1060 0 0 1 1.636-4.804c-12.92-6.365-18.815 2.055-18.815 7.437 0 12.876 17.8 10.127 15.233 19.184-.903 3.298-6.63 5.179-13.23 1.07-.48 1.389-1.27 3.067-2.059 4.746 8.716 4.687 20.027 2.43 20.394-7.234.508-12.153-15.091-11.285-15.091-18.085m228.594 1.302c-.79-10.561-10.775-9.751-12.975-9.866a350 350 0 0 0-9.083-.116v35.503h5.416v-14.93c1.833 0 2.425 0 5.19-.116l9.872 15.046h6.573l-10.917-15.972c2.934-1.099 6.347-3.675 5.924-9.549m-13.286 6.424c-1.213 0-2.144 0-3.356-.058v-12.008h2.848c1.354 0 8.463-.434 9.083 5.382.762 6.887-7.108 6.684-8.575 6.684m49.025-16.348h-6.262l-11.34 35.561h5.36c1.692-6.424 2.256-8.246 2.256-8.246l14.02-.058c1.636 4.745 2.849 8.362 2.849 8.362h5.556zm-8.744 23.235 5.472-17.564h.056l5.726 17.506zM186.624 135c-11.029 0-18.222 8.362-18.222 18.75s7.193 18.75 18.222 18.75 18.223-8.362 18.223-18.75S197.654 135 186.624 135m0 32.378c-8.095 0-12.665-6.047-12.665-13.628 0-7.494 4.57-13.628 12.665-13.628 8.04 0 12.666 6.047 12.666 13.628 0 7.494-4.57 13.628-12.666 13.628" data-color="1"/>
        </g>
    </g>
</svg>
