<?xml version="1.0" encoding="UTF-8"?>
<svg data-bbox="101.002 96.1 100.04 110.251" xmlns="http://www.w3.org/2000/svg" viewBox="0 0 300 300" height="300" width="300" data-type="color">
    <g>
        <mask height="111" width="101" y="96" x="101" maskUnits="userSpaceOnUse" style="mask-type:luminance" id="0d5ee592-a243-4db7-94dd-dfae53cbd503" fill="none">
            <path fill="#ffffff" d="M201.042 96.1H101v110.25h100.042z"/>
        </mask>
        <g mask="url(#0d5ee592-a243-4db7-94dd-dfae53cbd503)">
            <mask height="111" width="101" y="96" x="101" maskUnits="userSpaceOnUse" style="mask-type:luminance" id="d0a46ab1-75c3-4d4f-a537-6a34803ff5c7" fill="none">
                <path fill="#ffffff" d="M201.041 96.1H101v110.25h100.041z"/>
            </mask>
            <g mask="url(#d0a46ab1-75c3-4d4f-a537-6a34803ff5c7)">
                <path fill="#3F3F3F" d="M113.885 193.031c-.164-.52-.642-1.688-.772-2.551-.288-1.91.715-3.168 1.636-3.456 1.033-.288 1.437.229 1.837 1.431.517 1.83.574 4.227.401 7.66-.226 4.689-2.581 10.351-8.435 10.234-5.053-.11-7.289-3.371-7.521-8.345-.11-2.345.058-4.689 1.033-8.004.517-1.775.978-2.407 2.583-2.747 1.261-.229 1.147 1.084.862 2.633-.629 3.429-.921 5.085-.688 8.975.225 4.117 2.123 5.719 4.19 5.719 3.099.059 4.476-2.513 5.052-6.234.455-2.972.112-4.402-.178-5.315m66.092 4.06c1.207 0 1.554 1.423 1.265 2.284-.288.856-1.32 1.833-2.926 2.117-.346-.86-.519-4.401 1.661-4.401m-22.438 1.939c0-.968-.52-1.77-1.146-1.77-.522 0-1.723.57-1.723 2.401 0 1.434.512 2.114.746 2.406 1.66-.517 2.123-1.893 2.123-3.037m-17.855-11.663c-.081-.917-.802-1.541-1.779-1.541-1.089 0-2.115 1.138-2.006 2.569.07.943.628 1.718 1.724 1.718 1.259.001 2.176-1.428 2.061-2.746m9.335 3.359c-.099-1.599-.488-2.321-1.35-2.262-1.143.069-1.672 3.652-1.438 7.418.149 2.457.516 2.836.858 2.812.633-.038 2.15-4.428 1.93-7.968m38.077 6.019c-.712 2.94-2.869 7.265-6.086 7.265-.745 0-2.066-.289-2.066-1.032 0-.801 5.055-.911 5.055-4.745 0-1.428-1.32-3.432-3.273-3.432-2.583 0-5.102 2.805-5.102 6.692 0 3.485 2.173 4.63 4.354 4.63 3.79 0 6.086-3.09 7.291-5.661.576 1.716.915 5.661 2.356 5.661.572 0 .976-.287 1.665-1.828 1.718-3.834 3.385-8.236 5.682-8.236.858 0 .344 1.547 2.41 1.547.973 0 1.66-.801 1.66-1.72 0-1.316-1.204-2.342-3.039-2.342-5.397 0-6.541 8.063-7.403 8.063-1.436 0-.976-6.462-2.012-6.462-.918-.001-1.37 1.089-1.492 1.6m-45.918 6.861c.86 0 2.34-.278 3.504-2.136-.666-1.473-1.141-4.45-1.207-5.534-.342-5.543 1.801-10.757 4.148-10.901 1.721-.104 3.097 1.518 3.255 4.146.423 6.907-1.886 9.79-3.042 12.278.195.964 1.838 2.606 3.387 2.606.572 0 1.264-.286 1.438-.518a5.7 5.7 0 0 1-.233-1.657c0-4.003 2.584-7.378 4.824-7.378 1.779 0 2.812 2.344 2.812 3.891 0 1.827-1.551 3.317-3.846 4.747.404.397 1.146.686 1.781.686 3.274 0 4.987-3.947 6.256-7.551.229-.687.633-1.657 1.435-1.657 1.377 0 1.954 9.035 4.244 9.035.979 0 1.781-2.003 1.781-3.543 0-1.145-.402-1.26-.402-2.918 0-1.828.977-3.371 2.3-3.371.803 0 1.093.797 1.093 1.767 0 3.66-2.644 10.466-6.542 10.466-2.933 0-2.704-5.032-3.736-5.032-1.153 0-2.76 5.089-8.438 5.089-.922 0-1.896-.457-2.697-1.374-1.376.917-2.527 1.317-3.848 1.317-2.121 0-3.042-2.173-3.901-2.173-1.035 0-2.18 2.23-5.627 2.23-2.755 0-3.215-3.656-4.188-3.656-.863 0-2.183 3.656-3.617 3.656-2.415 0-2.926-6.346-5.054-6.346-1.664 0-6.923 6.445-8.351 6.298-.574-.06-.815-.487-.755-1.059.081-.791.764-2.909 1.042-3.911.464-1.739.89-3.645 1.128-4.252.236-.614.873-1.051 1.385-1.004.257.024.334.503.414.899.291 1.414.695 2.855 1.152 2.855.806 0 3.469-5.09 5.018-5.09 1.897 0 2.125 8.008 4.706 8.008.863 0 1.497-1.028 2.069-2.29.058-2.118.632-5.142 2.354-5.142 1.206 0 1.78 2.685.917 5.032-.002 2.8 1.833 3.487 3.041 3.487" data-color="1"/>
            </g>
            <path fill="#3F3F3F" d="M181.158 113.938c-.425 0-1.036 0-1.371-.665-.276-.547-.183-1.428-.701-1.822.518.151 1.066.151 1.492.151 1.373 0 2.684-.94 3.69-.94.664 0 .877.425.877.848.001 1.337-2.705 2.428-3.987 2.428m.67 3.429c3.165 0 6.063-2.518 6.063-4.732 0-1.033-.489-1.882-1.738-2.034.213.274.304.486.304.971 0 1.67-2.553 3.521-5.328 3.521-1.007 0-1.312.697-1.312 1.061 0 .85.824 1.213 2.011 1.213m-.243 1.275c.398 2.882 4.781 6.766 5.968 6.674.795-.066 1.099-3.762 1.099-6.674 0-1.668.092-2.974-.793-3.278-1.403 2.823-5.084 3.4-6.274 3.278" data-color="1"/>
            <path fill="#3F3F3F" d="M113.028 137.727c1.034 0 .822-6.311 2.496-6.311.397 0 .519.394.519.88 0 1.425-.701 3.52-.701 4.672 0 .577.153.759.427.759.732 0 2.011-6.949 3.259-6.949.396 0 .578.395.578.789 0 1.457-1.856 5.644-1.856 6.827 0 .182.059.333.213.333.762 0 2.284-3.276 2.771-4.914.274-.85.639-1.306.975-1.306.304 0 .58.334.58 1.033 0 1.638-1.525 5.491-2.865 8.071-1.034 2.002-2.649 4.883-2.649 6.491 0 .82.15 1.669 1.339 2.701-1.95-.122-2.741-.303-3.471-1.82-3.26 6.462 5.999 5.826 2.832 11.558-.58-1.029-5.147-2.092-5.147-8.099 0-5.188 4.567-8.223 4.567-10.376 0-.424-.15-.788-.546-1.122-1.007-.851-1.038-1.547-1.829-1.547-.578 0-1.281 1.334-.549 2.517.245.395.458.638.458 1.002 0 .848-1.341 3.123-2.284 3.123-.945 0-1.675-2.333-1.675-6.097 0-3.339.76-6.705 1.705-6.705.274 0 .365.181.365.425 0 .395-.121 1.182-.121 2.517 0 1.426.335 1.548.609 1.548" data-color="1"/>
            <path fill="#3F3F3F" d="M120.793 146.615c1.281 0 2.346-.942 2.346-3.032v-3.096c0-1.183.092-2.517.884-3.46-.092.396-.092.82-.092 1.215 0 2.61 1.461 4.401 1.461 6.918 0 .939-.274 1.456-1.003 1.456-.702 0-.64-.637-.794-.637-.121 0-.304.394-.304.819 0 .637.457 1.638 1.736 1.638 1.097 0 1.979-1.001 1.979-2.124 0-2.728-2.132-5.764-2.132-8.676 0-1.275.335-2.124.609-2.792 0 6.038 5.147 10.437 5.147 12.954 0 .578-.426 1.033-1.066 1.033-.7 0-1.036-.547-1.036-.972 0-.212-.03-.273-.122-.273-.181 0-.73.607-.73 1.397 0 1 .822 2.216 2.345 2.216 1.735 0 2.68-1.459 2.68-2.763 0-3.185-6.244-8.01-6.244-13.166 0-.881.151-2.307.793-3.399-4.021 2.578-5.269 6.008-5.269 9.011 0 2.61-.091 3.913-1.431 3.913-.702 0-.884-.636-1.129-.636-.182 0-.274.546-.274.697.002 1.122.825 1.759 1.646 1.759" data-color="1"/>
            <path fill="#3F3F3F" d="M166.937 112.453c.387-.259 2.104.151 4.324-.943.273-.149.548-.21.791-.21 1.068 0 .794 1.213 1.769 1.213.76 0 1.738-.638 2.317-.638.908 0 2.218 2.853 2.218 4.188 0 1.547-2.341 2.489-5.114 2.489-4.049 0-6.488-3.52-6.488-5.796.001-.182.093-.243.183-.303m6.641 3.853c1.341 0 2.346-.607 2.346-.972 0-.12-.182-.211-.579-.211s-1.189-.03-2.682-.274c-1.282-.212-2.257-.697-2.622-.697-.122 0-.183.06-.183.151 0 .79 1.463 2.003 3.72 2.003" data-color="1"/>
            <path fill="#3F3F3F" d="M121.434 158.054c-1.005.243-2.62 1.819-2.62 4.31 0 2.971 3.198 7.554 8.467 7.554 4.446 0 5.543-3.065 5.543-5.13 0-4.58-2.831-7.797-6.516-7.797-2.01 0-3.808 1.457-3.808 3.61 0 2.004 1.523 5.007 5.146 5.007 1.706 0 2.711-1.215 2.711-2.607 0-1.366-1.248-3.246-3.077-3.246-.548 0-.943.36-.943.939 0 .727 1.003 1.457 2.253 1.457.304 0 .548-.061.671-.123a.74.74 0 0 1 .091.365c0 .699-.67 1.124-1.706 1.124-1.553 0-3.045-1.152-3.045-2.977 0-1.089.945-1.878 2.315-1.878 2.71 0 4.323 2.396 4.323 4.795 0 2.152-1.185 3.398-3.623 3.398-4.873-.001-7.247-4.371-6.182-8.801" data-color="1"/>
            <path fill="#3F3F3F" d="M156.201 175.829c1.461 0 1.385-.121 1.842-.121.456 0 .487.273.487.456 0 .668-1.493 1.487-4.143 1.487-1.553 0-2.498-.82-2.771-1.73-1.523.971-3.837 1.851-6.122 1.851-6.242 0-7.826-2.702-9.777-3.58-1.492-.668-3.776.638-6.975-2.913.427.092 1.007.122 1.463.122 2.801 0 4.293-1.363 4.293-3.55 0-.274-.03-.574-.061-.846.854.333 2.804 1.788 3.262 4.366.059.304 1.307.576 2.099.576 1.098 0 2.499-.455 2.712-2.244 3.655-.302 6.123-2.455 6.641-5.19 1.308.426 2.8 1.609 3.166 2.217q.776-.272 1.826-.273c.975 0 2.073.183 3.381.577.062-.394.122-.88.732-.88.913 0 .67 1.002.975 1.575.152.304.915.486.915 1.093 0 .579-.49.791-.794.791-.122 0-.275-.03-.367-.06-.608.213-.64 4.579-3.197 4.579-1.887 0-3.624-1.547-4.386-3.487-.213-.577-.67-.942-1.097-.942-.486 0-.76.092-1.338.73-1.644 1.788-4.386 3.335-7.767 3.335-1.036 0-1.858-.093-2.072-.093-.123 0-.123.031-.123.06 0 .214 1.035 1.034 3.29 1.034 5.361 0 6.671-3.005 7.523-3.005.124 0 .486 0 .699.486 1.251 2.911 3.978 3.579 5.684 3.579m-2.362-6.063a1.22 1.22 0 0 0 2.438 0 1.22 1.22 0 0 0-1.218-1.216c-.671 0-1.22.547-1.22 1.216" data-color="1"/>
            <path fill="#3F3F3F" d="M177.961 154.625c-.427 0-.884.335-.884 1.156 0 .907.702 1.485 1.097 1.666.214.123.55.244.882.244.884 0 1.586-.244 1.586-.974-.001-.936-1.374-2.092-2.681-2.092m-3.286 1.88c-.64 0-4.178 4.703-6.457 4.703-.548 0-1.006-1.031-1.006-1.817 0-.425.274-.729 1.251-.943 5.237-1.183 4.078-5.098 8.552-5.098 2.466 0 5.212 1.671 5.212 5.432 0 4.005-5.723 8.979-6.576 8.979-.702 0-1.463-1.001-1.463-1.668 0-.212.092-.485.701-.728 2.92-1.154 4.593-3.824 4.593-5.19 0-.304-.151-.604-.548-.604-.516 0-2.734 5.034-5.204 5.034-1.708 0-3.446-1.543-3.446-2.273 0-1.216 4.94-3.459 4.94-5.16-.001-.638-.305-.667-.549-.667" data-color="1"/>
            <path fill="#3F3F3F" d="M114.398 116.731s-.882.667-1.979.667c-1.309 0-2.345-.97-2.345-2.336 0-.941.488-1.911 1.614-2.398-.03.183-.03.334-.03.516-.001 1.731.974 3.035 2.74 3.551m6.518 5.826c-.67.788-1.371 2.123-1.371 3.488 0 1.638 1.006 3.003 2.56 3.003 1.491 0 2.193-1.274 2.193-2.578 0-2.032-1.859-3.46-3.382-3.913m-10.111 1.213a.65.65 0 0 0-.092.334c0 .274.305.576.578.576.244 0 .396-.06.518-.06.73 0 1.553.515 2.741.515.699 0 1.522-.213 2.557-.727 2.193-1.093 3.047-3.793 3.047-4.249 0-.577-.465-.501-.854-1.032-.388-.529-.24-.997-.487-1.244-.14-.142-.577-.151-1.127-.212a7 7 0 0 0-.671-.031c-1.003 0-2.195.124-3.532.972-2.641 1.68-2.253 4.46-2.678 5.158m7.157-3.762c.211.286.793.638.793.85 0 .423-.245.971-.732.971-1.066 0-1.918-1.609-1.918-2.52 0-.575.335-.636.791-.636.213 0 .305.031.457.122.273.152.273.758.609 1.213m-2.803 3.702c-1.004 0-2.101-1.244-2.101-2.367 0-.606.457-1.366.792-1.366.121 0 .183.092.212.305.183 1.486 1.158 2.336 2.073 2.76.091.06.152.091.152.151 0 .213-.579.517-1.128.517m2.59-7.646a6 6 0 0 0 .274-1.761c0-1.455-.672-3.671-2.742-3.671-1.187 0-2.042.941-2.042 2.064 0 2.397 2.407 3.368 4.51 3.368m-7.889 12.135c0 2.305.702 3.399 1.95 3.399.975 0 2.284-.699 3.836-2.034-1.186.273-2.102.456-2.923.456-1.096 0-1.948-.425-2.863-1.821m1.067-2.7c-.029.153-.029.304-.029.454 0 1.426.759 2.216 1.765 2.216.759 0 1.644-.455 2.434-1.457-.333.06-.731.09-1.096.09-1.125 0-2.344-.302-3.074-1.303m7.462-.425c-.702.182-2.163 1.031-2.163 2.548 0 1.091.852 1.791 1.918 1.791.549 0 .944-.122 1.188-.304-.852-.819-1.157-1.73-1.157-2.639 0-.638.091-1.031.214-1.396m1.096-8.313a1.22 1.22 0 0 0 1.217 1.215c.67 0 1.219-.547 1.219-1.215a1.22 1.22 0 0 0-2.436 0m1.582 2.73a1.22 1.22 0 0 0 2.439 0 1.22 1.22 0 0 0-2.439 0" data-color="1"/>
            <path fill="#3F3F3F" d="M168.584 134.388c0-.606.549-1.122 1.151-1.122.671 0 1.189.516 1.189 1.122 0 .698-.519 1.184-1.189 1.184a1.16 1.16 0 0 1-1.151-1.184m-10.694-9.344c0 .667.55 1.214 1.218 1.214.672 0 1.221-.547 1.221-1.214s-.55-1.213-1.221-1.213c-.668 0-1.218.547-1.218 1.213m-1.034 4.278c0 .941.79 1.728 1.736 1.728.943 0 1.737-.787 1.737-1.728 0-.94-.794-1.73-1.737-1.73-.946 0-1.736.79-1.736 1.73m3.839-1.942a1.84 1.84 0 0 0 1.852 1.851 1.844 1.844 0 0 0 1.861-1.851 1.845 1.845 0 0 0-1.861-1.851 1.84 1.84 0 0 0-1.852 1.851m.153-3.944a1.155 1.155 0 1 0 2.309 0 1.155 1.155 0 0 0-2.309 0m5.511-2.911c0 .635.518 1.151 1.159 1.151.639 0 1.158-.516 1.158-1.151 0-.639-.519-1.155-1.158-1.155-.641 0-1.159.516-1.159 1.155m-2.286 3.731a1.96 1.96 0 0 0 1.95 1.941c1.067 0 1.952-.88 1.952-1.941a1.96 1.96 0 0 0-1.952-1.941c-1.067 0-1.95.878-1.95 1.941m-3.135 7.099c0 .668.549 1.213 1.214 1.213a1.22 1.22 0 0 0 1.22-1.213 1.22 1.22 0 0 0-1.22-1.214 1.22 1.22 0 0 0-1.214 1.214m3.988-2.428a1.22 1.22 0 0 0 2.439 0 1.22 1.22 0 0 0-2.439 0m-1.127 4.278a2.105 2.105 0 0 0 4.208 0 2.105 2.105 0 0 0-2.105-2.094 2.103 2.103 0 0 0-2.103 2.094m4.388-2.58c0 .79.641 1.428 1.428 1.428a1.427 1.427 0 1 0 0-2.853c-.787 0-1.428.637-1.428 1.425m-.091-3.823c0 .7.58 1.276 1.273 1.276.702 0 1.282-.576 1.282-1.276 0-.696-.58-1.273-1.282-1.273-.693 0-1.273.577-1.273 1.273" data-color="1"/>
            <path fill="#3F3F3F" d="M171.199 166.609c-.793.608-2.645 1.971-5.725 1.971-1.645 0-2.377-.516-2.621-.516-.305 0-.64.303-.975.698-.724.851-1.67 2.429-1.67 4.157 0 1.212.946 2.424 2.706 2.424 5.701 0 9.961-3.548 9.961-6.429 0-1.637-.974-2.305-1.676-2.305m-1.584-.333c.246-.21.304-.546.304-.881v-.698c0-.881-1.335-1.394-3.164-1.394-2.226 0-3.415.998-3.415 1.425v1.395c0 .578 1.343 1.154 2.989 1.154 1.31 0 2.499-.333 3.286-1.001m-.246 3.003c.154 0 .335.09.335.638 0 .666-.303 1.545-1.395 2.242-.762.518-1.799.943-3.322.97.243-.725.427-1.486.427-2.211 0-.243-.03-.426-.061-.698h.396c2.408.001 3.445-.941 3.62-.941" data-color="1"/>
            <path fill="#3F3F3F" d="M157.738 132.204c.335 2.577 3.811 1.273 3.811 4.397 0 .456-.122 1.125-.122 1.7 0 .668.059 1.244.573 1.244.517 0 .64-.363.64-.849 0-.487-.123-1.093-.123-1.426 0-1.063.762-1.305 1.221-1.305 1.158 0 2.041 1.184 3.78 1.184-.398 1.941-4.421 1.425-4.421 3.55 0 1.062 1.067 1.303 1.768 1.303.64 0 .854-.09.854-.635 0-.305-.062-.639-.062-.851a.24.24 0 0 1 .245-.243c.673 0 3.956 2.488 3.956 3.248 0 .697-3.469 1.394-4.474 1.394-.305 0-.366-.212-.366-.333 0-.213.518-.85.518-1.213 0-.273-.457-.456-1.677-.456-.58 0-1.007.061-1.007.517 0 .817 1.342 1.82 1.342 2.576 0 .608-.366.972-1.342.972-.823 0-2.067-.638-2.067-1.699 0-.849.879-1.697.879-2.214 0-.152-.116-.395-.482-.395-1.129 0-1.433 2.972-5.425 3.307.64-.576 1.187-1.214 1.187-2.516 0-.638-.151-1.155-.151-1.852 0-.91.425-1.366 1.035-1.366 1.126 0 1.674 1.577 2.408 1.577.397 0 .823-.362.823-.909 0-2.306-4.448-1.973-4.448-5.219.001-.88.304-1.972 1.127-3.488m14.527 8.89c0 .756.246 1.637 1.008 1.637.64 0 1.187-.97 1.187-2.032 0-1.214-.213-2.155-.213-2.642 0-.211.092-.302.213-.302.458.031.884 1.274 1.373 1.274.549 0 1.366-1.002 1.7-1.002.092 0 .122.122.122.152 0 .456-.701 1.458-.701 1.852 0 .333 1.768.394 1.768.697 0 .456-1.854.456-2.737.851-.852.363-1.373.818-1.373 1.426 0 .607.61.727 1.464.727 2.035 0 3.467-1.091 3.924-1.091.091 0 .151.059.151.151 0 .304-1.035 1.304-1.035 1.76 0 .515 1.89 1.12 1.859 1.425-.03.091-.152.12-.365.12-.337 0-.854-.091-1.251-.091-.244 0-.457.03-.55.152-.211.243.062 1.852-.363 1.852-.397 0-1.433-3.58-3.773-3.58-.335 0-.579.273-.579.728 0 1.213 1.189 2.608 2.317 3.276.51.334 1.365.668 1.365.851 0 .363-1.945.03-1.945.636 0 .546.244 1.367.244 1.851 0 .152-.031.333-.213.333-.366 0-1.251-1.668-1.677-1.668-.366 0-1.158 1-1.494 1-.091 0-.151-.09-.151-.18 0-.699 1.128-2.275 1.128-3.824 0-.728-.092-2.306-.977-2.306-.731 0-1.555 1.153-1.92 2.306-.212.667-.061 3.247-.549 3.247-.457 0-.335-1.729-.946-1.729-.449 0-1.425.818-1.76.818-.062 0-.123-.031-.123-.091 0-.363.884-1.547.884-1.79 0-.455-2.011-.515-2.011-.879 0-.213.792-.364 1.523-.486 1.55-.274 3.835-1.396 3.835-2.973 0-1.759-1.707-2.518-2.829-3.247-.579-.364-1.219-.666-1.219-.909s.731-.243 1.036-.243c.457 0 .909-.031.909-.394 0-.274-.062-.819-.062-1.244 0-.304.03-.547.154-.547.456 0 1.096 1.486 1.402 1.486.487 0 1.157-1.214 1.616-1.214.151 0 .213.092.213.365.002 1.122-.579 2.396-.579 3.491" data-color="1"/>
            <path fill="#3F3F3F" d="M158.623 149.497c1.402.182 1.738.667 1.738 1.062 0 .668-.61.88-1.191.88-.425 0-.913-.091-1.431-.091-.672 0-1.34.152-1.888.789.395.06.975.335.975.942 0 1.76-4.903.302-4.903 4.824 0 2.396 2.498 5.007 6.273 5.007 1.952 0 3.201-.637 3.201-1.367 0-.576-1.035-.183-1.035-.668 0-.212.365-.608.365-.943 0-.147-.122-.422-.365-.422-.551 0-1.587.877-3.689.877-1.645 0-3.26-.937-3.26-2.213 0-.272.123-.425.305-.425.184 0 .426.122.64.122.184 0 .213-.122.213-.455 0-.334 0-1.276.578-1.276.58 0 1.677 2.125 5.882 2.125 1.396 0 4.109-.272 5.115-1.183-.03 3.338-2.653 7.737-8.133 7.737-5.695 0-8.741-4.552-8.741-8.74 0-4.64 3.806-8.857 9.016-8.857 1.338 0 2.468.454 2.468 1.031-.001.791-1.982.304-2.133 1.244m9.351 1.61c.213.332.305.666.305.969 0 .851-.579 1.639-.579 2.52 0 1.001.762 1.819 1.915 1.819 1.249 0 2.103-.999 2.103-2.184 0-1.608-1.463-2.973-3.744-3.124m-10.084 1.941c.304.302.397.606.397.91 0 .454-.213.941-.213 1.457 0 .725.549 1.364 1.339 1.364.855 0 1.435-.669 1.435-1.455 0-1.153-1.192-2.276-2.958-2.276m4.049-5.159c3.2.607 4.938 3.005 4.938 5.251 0 1.548-.975 2.971-2.683 2.971-1.555 0-2.676-1.061-2.676-2.76 0-1.274.999-2.609.999-3.915 0-.515-.152-1.031-.578-1.547m1.585 4.036c0 .424.305.759.732.759.486 0 .792-.426.792-.911 0-.636-.579-1.516-1.128-1.516-.245 0-.152.364-.213.758-.032.302-.183.666-.183.91" data-color="1"/>
            <path fill="#3F3F3F" d="M129.902 120.706c1.035 0 2.222-5.583 2.222-6.525 0-.242-.09-.425-.304-.425-.944 0-2.253 5.311-2.253 6.495-.001.212.06.455.335.455m7.462 1.668c.759 0 1.612-2.913 1.612-4.734 0-.395-.06-.818-.244-.818-.64 0-1.706 3.004-1.706 4.641.001.638.154.911.338.911m-4.968-2.701c.335 0 .762-.365 1.556-1.243.06-.394.06-.759.06-1.214 0-.606-.244-1.274-.609-1.274-.915 0-1.37 2.427-1.37 3.066.001.362.182.665.363.665m4.174-1.243c0-.517-.122-.638-.243-.638-.305 0-.639.365-1.127 1.184.061 1.092.244 1.578.548 1.578.335 0 .822-1.063.822-2.124m2.346-3.581c2.011 0 2.923 1.73 2.923 3.672 0 .849-.242 2.094-.638 2.094s-.335-.699-.396-1.336c-.061-.819-.214-1.001-.488-1.001-.519 0-.853 1.213-.853 2.337 0 .696.123 1.486.669 1.486.305 0 .58-.152.763-.334-.122 1.395-1.159 2.61-2.62 2.61-2.68 0-3.686-3.126-3.989-4.946-1.614 1.699-3.106 2.943-5.787 2.943-2.497 0-3.624-1.82-3.624-3.549 0-.517.182-1.851.823-1.851.761 0 .091 2.487 1.583 2.487.366 0 1.034-.305 1.402-1.304.212-.608.334-1.244.334-1.791 0-.82-.182-1.334-.791-1.334-.519 0-1.159.393-1.372.606.732-2.185 2.498-3.307 4.445-3.307 2.408 0 3.686 2.124 3.686 4.491 0 .333-.03.697-.092 1.031 1.036-1.699 2.47-3.004 4.022-3.004" data-color="1"/>
            <path fill="#3F3F3F" d="M133.22 123.009c-1.309 0-1.37 1.581-1.37 4.764-.975-2.093-2.588-4.338-4.477-4.338-1.279 0-1.765.85-1.765 2.335 0 .304.03.76.091 1.031.153-.514.64-.727 1.248-.727 1.311 0 2.894 1.001 3.93 2.367-1.187-.212-2.345-.425-3.319-.425-.61 0-1.158.061-1.614.273-.884.394-2.072 1.699-2.072 3.672q0 .455.093 1c1.065-2.367 3.897-3.428 5.725-3.428.366 0 .639.03.853.061-.945.848-1.157 2.335-1.22 3.337-.028.485-.213.517-.548.517 0 1 .793 2.488.793 3.245 0 .273-.152.516-.304.578 0 1.335 1.338 2.305 1.338 3.154 0 .212-.059.395-.152.486.093.547 1.566 1.465 1.757 1.926.234.559.497.654.65.654.518 0 1.338-.608 1.338-1.155 0-.181-.153-.393-.273-.485-.579-.424-.884-1.334-1.128-1.94-.213 0-.489-.09-.586-.447-.166-.629-.174-1.799-.418-2.498-.396-.09-.58-.242-.58-1.061 0-.395.245-1.943.245-2.49-.182 0-.426-.121-.426-.485 0-.97.976-1.729 1.248-2.972 1.737 1.273 2.162 2.577 2.162 3.732 0 .605-.092 1.182-.213 1.729 1.279-.638 3.198-1.578 3.198-3.49 0-1.124-.518-2.367-3.96-2.852 1.066-.395 2.407-.606 3.533-.606 1.951 0 3.077.606 3.319 1.97.397-.605.702-1.304.702-1.94 0-1.488-1.25-2.458-2.833-2.458-1.858 0-3.503.97-5.27 2.154.794-1.637 1.34-2.608 2.316-2.608.152 0 .304.03.457.061-.366-1.334-1.736-2.641-2.468-2.641" data-color="1"/>
            <path fill="#3F3F3F" d="M184.536 144.885c1.526 0 2.744 1.971 2.744 4.278 0 2.457-1.159 5.128-3.225 6.947-.03-4.095-5.062-2.791-5.062-5.763 0-1.274.916-2.124 2.014-2.124q1.462 0 2.286.821a2.7 2.7 0 0 1-.823-1.943c0-1.156.732-2.216 2.066-2.216" data-color="1"/>
            <path fill="#3F3F3F" d="M157.342 116.064c.793.758 1.492 1.091 2.346 1.091.336 0 .733-.09.947-.09.275 0 .456.12.456.333 0 .334-.305.881-.67 1.185.365.151.762.212 1.189.212 1.73 0 3.711-1.093 3.711-3.823.367.484.58 1.486.58 1.942 0 3.307-2.439 4.58-4.688 4.58-1.463 0-2.196-.486-2.38-.486-.578 0-.547 1.155-.943 1.124-.701-.121-1.34-1.669-1.34-3.307.001-.971.245-2.003.792-2.761m4.597-2.216c-.244-.394-1.153-.606-1.578-.606-1.343 0-2.257.94-2.44 1.79a2.9 2.9 0 0 1-.213-1.032c0-1.335.915-2.973 3.141-2.973 1.944 0 2.706 1.032 2.981 1.032.304 0 .609-.304.854-.304.335 0 .335.516.335.881 0 1.212-.55 3.306-1.921 4.065-.245-.516-.732-1.093-1.519-1.456a.48.48 0 0 1-.304-.455c-.001-.335.303-.76.664-.942" data-color="1"/>
            <path fill="#3F3F3F" d="M136.174 107.234c0 1.062 3.807 6.25 4.539 6.25.61 0 1.066-1.062 1.066-1.973 0-.241-.062-.483-.182-.667-.549-.758-4.417-3.793-5.27-3.793-.093 0-.153.092-.153.183m-22.386-3.125c0 .608-2.314 2.639-3.135 2.639-.304 0-.397-.363-.397-.696 0-.606.274-1.457.61-1.731.394-.364 1.308-.544 2.009-.544.426 0 .913.089.913.332m27.809 1.76c0-1.821-4.941-5.128-4.996-6.553-.006-.13.066-.26.177-.376.846-.89 4.361-1.538 4.361-2.296 0-.392-.732-.392-1.098-.392-2.832 0-6.974 1.03-6.974 2.031 0 1.033 3.715 3.551 3.715 4.796 0 .333-.213.455-.548.455-1.035 0-3.289-1.246-4.355-1.246-.487 0-.671.334-.671.821 0 1.456 1.736 4.217 1.736 5.034 0 .092-.031.213-.153.213-.548 0-3.135-3.032-4.05-3.032-.334 0-.365.453-.365 1.122v1.031c0 .697-.031 1.123-.364 1.123-.794 0-1.159-2.215-1.92-2.215-.792 0-.945 3.943-1.704 3.943-.885 0-.123-4.338-.976-4.338-.944 0-2.011 2.883-2.681 2.883-.243 0-.303-.244-.303-.456 0-.879.516-2.305.516-3.154 0-.426-.122-.668-.486-.668-.946 0-3.016 1.517-3.807 1.517-.122 0-.275-.06-.275-.183 0-.726 3.32-3.033 3.32-4.064 0-1.002-4.571-.334-4.571-1.488 0-.97 3.262-1.971 3.262-2.973 0-.88-3.869-1.273-5.361-1.273-1.797 0-2.771.21-2.771.727 0 .789 4.082 1.032 4.082 1.73 0 .667-4.235 2.457-4.235 3.488 0 .911 5.969.061 5.969 1.003 0 1.03-5.206 5.489-5.206 6.976 0 .334.243.487.577.487 1.584 0 5.694-3.004 6.822-3.004.397 0 .427.484.427.91 0 .789-.273 2.002-.273 2.883 0 .696.182 1.182.79 1.182 1.129 0 2.163-1.911 2.926-1.911.974 0 .395 5.612 1.858 5.612 1.248 0 1.765-6.067 2.557-6.067s1.433 1.759 2.163 1.759c.913 0 .487-3.064 1.462-3.064 1.065 0 4.111 3.641 5.482 3.641.426 0 .578-.334.578-.759 0-1.609-2.253-5.248-2.253-6.4 0-.303.09-.395.425-.395 1.188 0 4.661 1.638 6.305 1.638.552 0 .886-.303.886-.698m-3.169-6.007c0 .546 1.919 1.73 2.804 1.73.517 0 .669-.699.669-1.427 0-.91-.394-.94-1.187-.94-1.006 0-2.286.273-2.286.637m-7.157-3.095c0-.183-.913-.365-2.161-.365-1.981 0-1.706 1.64-3.229 1.64-1.583 0-1.189-1.7-3.199-1.7-1.218 0-2.344.213-2.344.485 0 .365 1.431.213 1.431 1.215 0 1.061-3.077 1.365-3.077 2.002 0 .213.243.304.548.304.671 0 1.735-.304 2.498-.304.427 0 .823.09.823.485 0 .759-1.646 2.125-1.646 2.731 0 .183.151.244.304.244.61 0 1.646-1.548 2.62-1.548 1.614 0 .55 3.428 1.431 3.428.914 0 .518-3.369 1.828-3.369 1.068 0 1.858 2.337 2.589 2.337.183 0 .335-.151.335-.364 0-.636-.913-1.942-.913-2.791 0-.516.365-.76.852-.76.7 0 1.645.426 2.161.426.182 0 .365-.061.365-.273 0-.728-2.708-1.516-2.708-2.457.001-.941 1.492-.941 1.492-1.366" data-color="1"/>
            <path fill="#3F3F3F" d="M185.267 101.683c0 2.699-1.974 4.762-5.542 5.338.397.03.763.03 1.129.03 4.17 0 5.695-1.88 5.695-3.457 0-.881-.488-1.668-1.282-1.911m-5.145 3.063c0-2.154-5.173-2.701-5.173-3.185 0-.394 2.888-1.063 4.381-1.093-2.284-2.913-5.539-2.608-5.539-3.125 0-.303 2.437-.911 4.688-.911 1.888 0 3.655.425 3.655 1.851 0 .79-.64 1.61-.64 2.822 0 .668.333 1.244 1.219 1.244.947 0 1.158-1 1.158-2.064 0-.878-.151-1.546-.151-1.971 0-1.274.877-2.123 2.127-2.123 1.036 0 1.28.453 2.805.453-.824.487-1.129 1.367-1.129 1.79 0 1.277.826 2.156.826 4.766 0 4.791-4.507 6.491-10.023 6.491-1.516 0-3.133-.122-4.719-.364-.242-.03-.304-.09-.304-.242 0-.395 2.165-.608 2.165-2.548 0-.76-.244-1.487-.244-1.76a.24.24 0 0 1 .244-.243c.457 0 1.373 1.759 3.073 1.759.452 0 1.581-.152 1.581-1.547m4.963-6.704c0 .424.335.757.762.757a.75.75 0 0 0 .762-.757.753.753 0 0 0-.762-.76.753.753 0 0 0-.762.76" data-color="1"/>
            <path fill="#3F3F3F" d="M182.378 126.074c0-.636-1.616-.697-1.767-2.488-.032-.272-.123-.756-.459-.756-.548 0-.122 1.668-.731 1.668-1.401 0-1.857-2.731-2.375-2.731-.123 0-.268.091-.268.455 0 .334.061.546.061.939 0 .396-.093.669-.457.669-.823 0-1.555-1.912-2.257-1.912-.152 0-.304.091-.304.244 0 .364.608 1.03.608 1.364 0 .729-1.981.334-1.981.942 0 .273.274.363.64.363.641 0 1.647-.272 2.165-.272.306 0 .762.06.762.453 0 .426-1.097.971-1.097 1.366 0 .182.182.272.335.272.823 0 2.279-1.425 3.315-1.425.182 0 .639.091.639.364 0 .394-1.035 1.091-1.035 1.668 0 .152.093.334.275.334.545 0 1.277-1.425 2.314-1.425.396 0 .976.152 1.282.152.244 0 .335-.152.335-.244m.793 14.715c.488-1.516 1.098-2.579 2.096-4.217-.998-.514-3.651-1.609-3.651-3.398 0-2.094 2.62-3.732 3.163-3.732.244 0 .305.213.305.607 0 1.092-.518 2.851-.518 3.793 0 .848.549 1.669 1.036 1.669.518 0 1.95-1.82 1.95-3.611 0-3.217-2.835-4.187-3.711-4.187-.824 0-2.317 1.334-5.822 1.334-6.546 0-8.04-6.46-8.04-9.283 0-.121.029-.152.06-.152.152 0 .794.79 2.865.79 1.067 0 2.043-.274 3.598-.274 3.648 0 5.264 2.52 7.521 5.734 1.364.849 4.627 2.215 4.627 6.068 0 3.398-3.627 5.279-4.505 8.92 1.395-.151 2.219-2.64 3.651-2.64.732 0 1.067.577 1.067 1.489 0 1.333-.763 3.337-2.226 4.58.03-.121.03-.274.03-.456 0-.848-.334-2.061-1.312-2.061-1.516 0-2.004 1.638-2.856 3.002-.885-3.094-2.074-5.886-4.205-7.585-2.157-1.729-5.877-.79-5.877-3.944 0-.851.55-2.063.55-3.034 0-.334-.062-.638-.246-.881 2.927 1.093 1.89 3.034 3.69 5.037 1.121 1.275 4.229 2.488 6.027 7.737.03-.151.061-.545.061-.818 0-4.491-5.968-8.892-6.486-10.712 3.467.394 4.076 1.245 5.722 5.796.337.941 1.436 3.277 1.436 4.429" data-color="1"/>
            <path fill="#3F3F3F" d="M166.511 108.69c-2.134 0-3.536-1.061-3.536-1.609 0-.273.182-.454.428-.454.67 0 2.133 1.031 2.619 1.031.124 0 .214-.06.214-.242 0-.547-.518-1.456-.518-1.91 0-.123.092-.213.274-.213.822 0 2.042.334 2.683.334.213 0 .274-.121.274-.244 0-.667-1.982-1.971-1.982-2.366 0-.364 2.463-.912 2.463-1.486 0-.608-3.348-.183-3.348-.76 0-.424.64-1.152.64-1.486 0-.152-.123-.212-.334-.212-.275 0-1.738.576-2.348.576-.304 0-.671-.06-.671-.486 0-.698 1.189-1.456 3.049-1.456 3.011 0 4.81 2.064 4.81 5.522.002 4.369-3.071 5.461-4.717 5.461m-5.937-5.764c0-.334-1.191-.971-1.191-1.335 0-.06.06-.091.152-.091.337 0 .916.122 1.375.122.396 0 .456-1.7.756-1.7.213 0 .577 1.609.915 1.609.395 0 1.126-.456 1.431-.456.061 0 .122.03.122.092 0 .212-.762 1.03-.762 1.273 0 .273 1.708.608 1.708.85 0 .304-1.738.274-1.738.547 0 .21.64 1.061.64 1.334q0 .092-.092.092c-.244 0-1.188-.426-1.463-.426-.335 0-.877 1.244-1.152 1.244-.091 0-.152-.121-.152-.273l-.061-1.213c0-.122-.06-.244-.213-.244-.366 0-1.068-.031-1.282-.031-.153 0-.213-.029-.213-.09-.001-.243 1.22-1.092 1.22-1.304m-.886 4.973c.489 0 .58 1.186.673 1.882.06.365.122.395.274.395.367 0 .944-1.395 1.336-1.395.577 0 2.133 1.608 4.723 1.608 3.683 0 7.158-2.58 7.158-7.129 0-4.4-3.111-6.98-7.402-6.98-2.041 0-3.536 1.002-4.329 1.002-.48.03-1.211-1.182-1.579-1.182-.151 0-.304.301-.304.818 0 .334 0 1.395-.366 1.395-.733 0-3.564-2.092-3.564-1.335 0 .699 1.886 2.823 1.886 3.369s-1.857 1.063-1.857 1.426c0 .667 1.98.788 1.98 1.639 0 .848-2.072 1.516-2.072 2.154 0 .515 2.072.152 2.072.788 0 .637-1.523 2.761-1.523 3.366 0 .153.03.153.151.153.579 0 2.316-1.974 2.743-1.974" data-color="1"/>
            <path fill="#3F3F3F" d="M145.891 161.178c0 .273-.092.577-.336.879-.332-.606-1.278-.91-1.705-.909-3.137 0-1.95 4.521-5.3 4.521-1.4 0-1.523-.182-2.039-.182-.214 0-.336.092-.336.273 0 .79 1.127 2.73 4.264 2.73s6.154-1.91 6.154-4.279c0-.395-.092-.816-.275-1.241.122-.183.428-.304.701-.304.487 0 .761.548 1.218.548a.833.833 0 0 0 .854-.85c0-.397-.213-.668-.578-.853a1.04 1.04 0 0 0 .426-.818c0-.518-.366-1-.977-1-.274 0-.455.092-.668.3-.06-.543-.366-1.059-.945-1.059-.457 0-.794.332-.794.85 0 .482.336.879.336 1.394" data-color="1"/>
            <path fill="#3F3F3F" d="M129.201 155.537c2.437.603 3.655 1.909 3.897 3.457.244 1.486.548 2.701 1.127 3.306.761.852 2.254 1.606 3.565 1.606 1.096 0 1.978-.36 1.978-1.363 0-1.093-1.492-3.55-3.685-3.55-.213 0-.487.031-.792.031-.275 0-.671-.06-.914-.273-.486-.426-.64-2.702-1.553-4.066-1.004-1.518-2.101-1.943-3.593-1.943-1.064 0-2.254.575-2.254 1.426 0 .519.274.882 2.224 1.369m8.498 6.795c-.916 0-2.286-.973-2.286-1.52 0-.455.427-.698.76-.698.763 0 2.132.943 2.132 1.732.001.211-.152.486-.606.486" data-color="1"/>
            <path fill="#3F3F3F" d="M134.895 138.696c0-1.941 4.631-2.973 4.631-5.37 0-.395-.152-1.092-.427-1.608 1.613.88 2.802 2.368 2.802 3.58 0 2.094-2.193 3.065-2.193 4.37 0 1.517 2.345 1.76 2.345 3.641 0 1.546-2.224 3.337-2.224 5.339 0 1.547 1.098 2.82 2.771 3.033-.548.121-1.034.212-1.552.212-3.078 0-6.245-2.517-6.245-5.522 0-1.486.64-2.788 1.613-3.73.855.729 1.707 1.213 2.255 1.213.487 0 .702-.242.702-.606.001-1.124-4.478-2.154-4.478-4.552m9.716 15.322c-1.044.477-1.46.395-1.46 1.458 0 .393-.093.907-.093 1.181 0 .364.061.577.487.577 1.097 0 2.834-1.85 2.834-3.429 0-.426-.245-.605-.519-.605-.244 0-.516.484-1.249.818m-.121-2.185c0-1.365-2.833-1.395-2.833-3.459 0-.517.334-1.395 1.005-2.337.275 1.578.913 2.398 2.285 2.915 2.71.999 3.076 2.516 3.076 4.126 0 2.731-1.919 6.129-6.853 6.129-3.96 0-6.793-3.521-6.793-6.494 0-.82.213-1.729.731-1.729.458 0 .609.364.975.727 1.372 1.367 2.864 1.729 5.026 1.729 1.949.001 3.381-.787 3.381-1.607" data-color="1"/>
            <path fill="#3F3F3F" d="M122.921 152.49a1.154 1.154 0 0 1-1.016 1.28 1.157 1.157 0 0 1-1.285-1.013 1.157 1.157 0 0 1 1.017-1.282 1.157 1.157 0 0 1 1.284 1.015m-5.692 1.194c.129 1.036 1.1 1.821 2.194 1.7.395-.044.762-.151 1.006-.303.244.97 1.062 1.595 2.167 1.45 1.121-.146 1.884-1.026 1.763-2.149a2.2 2.2 0 0 0-.182-.698s.148-.016.259-.036c1.1-.208 1.842-1.087 1.75-2.149-.122-1.092-1.105-1.903-2.129-1.777-.397.048-.764.199-1.008.412-.276-.909-1.134-1.7-2.306-1.507-1.059.175-1.76 1.07-1.654 2.205.018.185.061.395.153.606l-.303.044c-.889.132-1.854 1.023-1.71 2.202" data-color="1"/>
        </g>
    </g>
</svg>
