<?xml version="1.0" encoding="UTF-8"?>
<svg data-bbox="0 0 512 512" xmlns="http://www.w3.org/2000/svg" viewBox="0 0 512 512" height="512" width="512" data-type="color">
    <g>
        <g clip-path="url(#33555c57-7c20-421e-9b47-5164e8bd52f8)">
            <path fill="#D80027" d="M256 512c141.385 0 256-114.615 256-256S397.385 0 256 0 0 114.615 0 256s114.615 256 256 256" data-color="1"/>
            <path fill="#FFDA44" d="m140.1 155.8 22.1 68h71.5l-57.8 42.1 22.1 68-57.9-42-57.9 42 22.2-68-57.9-42.1H118z" data-color="2"/>
            <path fill="#FFDA44" d="m303.5 396.5-16.9-20.8-25 9.7 14.5-22.5-16.9-20.9 25.9 6.9 14.6-22.5 1.4 26.8 26 6.9-25.1 9.6z" data-color="2"/>
            <path fill="#FFDA44" d="m337.1 335.5 8-25.6-21.9-15.5 26.8-.4 7.9-25.6 8.7 25.4 26.8-.3-21.5 16 8.6 25.4-21.9-15.5z" data-color="2"/>
            <path fill="#FFDA44" d="M382.4 187.9 370.6 212l19.2 18.7-26.5-3.8-11.8 24-4.6-26.4-26.6-3.8 23.8-12.5-4.6-26.5 19.2 18.7z" data-color="2"/>
            <path fill="#FFDA44" d="m304.2 114.9-2 26.7 24.9 10.1-26.1 6.4-1.9 26.8-14.1-22.8-26.1 6.4 17.3-20.5-14.2-22.7 24.9 10.1z" data-color="2"/>
        </g>
        <defs fill="none">
            <clipPath id="33555c57-7c20-421e-9b47-5164e8bd52f8">
                <path fill="#ffffff" d="M512 0v512H0V0z"/>
            </clipPath>
        </defs>
    </g>
</svg>
