<?xml version="1.0" encoding="UTF-8"?>
<svg data-bbox="0 0 512 512" xmlns="http://www.w3.org/2000/svg" viewBox="0 0 512 512" height="512" width="512" data-type="color">
    <g>
        <g clip-path="url(#9416e54d-a29b-4212-b5c3-c86e38e17411)">
            <path fill="#F0F0F0" d="M256 512c141.385 0 256-114.615 256-256S397.385 0 256 0 0 114.615 0 256s114.615 256 256 256" data-color="1"/>
            <path fill="#338AF3" d="M256 189.217h247.181a254.6 254.6 0 0 0-28.755-66.783H256z" data-color="2"/>
            <path fill="#338AF3" d="M96.643 456.348h318.713a257.3 257.3 0 0 0 59.069-66.783H37.575a257.4 257.4 0 0 0 59.068 66.783" data-color="2"/>
            <path fill="#338AF3" d="M89.043 61.939a257.3 257.3 0 0 0-51.469 60.496h51.47z" data-color="2"/>
            <path fill="#338AF3" d="M256 256v-66.783H155.826V256H89.043v-66.783H8.819C3.08 210.511 0 232.893 0 256s3.08 45.489 8.819 66.783h494.363C508.92 301.489 512 279.107 512 256z" data-color="2"/>
            <path fill="#338AF3" d="M256 0c-35.549 0-69.404 7.253-100.174 20.348v102.087H256V55.652h159.357C371.626 20.824 316.249 0 256 0" data-color="2"/>
        </g>
        <defs fill="none">
            <clipPath id="9416e54d-a29b-4212-b5c3-c86e38e17411">
                <path fill="#ffffff" d="M512 0v512H0V0z"/>
            </clipPath>
        </defs>
    </g>
</svg>
